<!-- Generated by IcoMoon.io -->
<svg version="1.1" xmlns="http://www.w3.org/2000/svg" width="32" height="32" viewBox="0 0 32 32">
<title>fb_icon</title>
<path d="M1.376 16.075c0-15.531 21.685-19.989 27.755-5.931 6.496 15.040-12.448 27.232-23.477 16.203-2.432-2.432-4.277-6.677-4.277-10.272zM-0.075 14.987v2.176c0 7.467 7.445 14.912 14.912 14.912h2.176c7.467 0 14.912-7.445 14.912-14.912v-2.176c0-7.467-7.445-14.912-14.912-14.912h-2.176c-7.467 0-14.912 7.445-14.912 14.912z"></path>
<path d="M13.376 11.712v2.549h-1.813v2.901h1.813v8.363h3.637v-8.363c2.848 0 2.549 0.288 2.549-2.901h-2.549c0-2.795-0.235-2.549 2.549-2.549v-2.912c-2.464 0-6.187-0.64-6.187 2.912z"></path>
</svg>
