<?xml version="1.0" encoding="UTF-8"?>
<!DOCTYPE svg PUBLIC "-//W3C//DTD SVG 1.1//EN" "http://www.w3.org/Graphics/SVG/1.1/DTD/svg11.dtd">
<!-- Creator: CorelDRAW 2020 -->
<svg xmlns="http://www.w3.org/2000/svg" xml:space="preserve" width="30px" height="30px" version="1.1" style="shape-rendering:geometricPrecision; text-rendering:geometricPrecision; image-rendering:optimizeQuality; fill-rule:evenodd; clip-rule:evenodd"
viewBox="0 0 30 30"
 xmlns:xlink="http://www.w3.org/1999/xlink"
 xmlns:xodm="http://www.corel.com/coreldraw/odm/2003">
 <defs>
  <style type="text/css">
   <![CDATA[
    .fil0 {fill:black}
   ]]>
  </style>
 </defs>
 <g id="Слой_x0020_1">
  <metadata id="CorelCorpID_0Corel-Layer"/>
  <g id="_1464528832">
   <path class="fil0" d="M1.36 15c0,-1.63 0.71,-4.3 1.26,-5.56 5.69,-13.18 26.02,-9 26.02,5.56 0,3.37 -1.73,7.34 -4.01,9.63 -8.58,8.57 -23.27,2.21 -23.27,-9.63zm-1.36 -1.02l0 2.04c0,7.01 6.97,13.98 13.98,13.98l2.04 0c7.01,0 13.98,-6.97 13.98,-13.98l0 -2.04c0,-7.01 -6.97,-13.98 -13.98,-13.98l-2.04 0c-7.01,0 -13.98,6.97 -13.98,13.98z"/>
   <path class="fil0" d="M7.5 20.11c2.65,0.62 12.35,0.62 15,0l0 -7.16c-8.68,5.81 -6.32,5.81 -15,0l0 7.16z"/>
   <path class="fil0" d="M7.5 10.57c0,2.04 1.64,2.57 3,3.48 0.62,0.41 3.68,2.41 4.27,2.49 0.64,0.09 7.73,-3.5 7.73,-5.63 0,-0.8 -0.57,-1.36 -1.36,-1.36l-12.28 0c-0.66,0 -1.36,0.6 -1.36,1.02z"/>
  </g>
 </g>
</svg>
