<!-- Generated by IcoMoon.io -->
<svg version="1.1" xmlns="http://www.w3.org/2000/svg" width="32" height="32" viewBox="0 0 32 32">
<title>mail_icon</title>
<path d="M1.451 16c0-1.739 0.757-4.587 1.344-5.931 6.069-14.059 27.755-9.6 27.755 5.931 0 3.595-1.845 7.829-4.277 10.272-9.152 9.141-24.821 2.357-24.821-10.272zM0 14.912v2.176c0 7.477 7.435 14.912 14.912 14.912h2.176c7.477 0 14.912-7.435 14.912-14.912v-2.176c0-7.477-7.435-14.912-14.912-14.912h-2.176c-7.477 0-14.912 7.435-14.912 14.912z"></path>
<path d="M8 21.451c2.827 0.661 13.173 0.661 16 0v-7.637c-9.259 6.197-6.741 6.197-16 0v7.637z"></path>
<path d="M8 11.275c0 2.176 1.749 2.741 3.2 3.712 0.661 0.437 3.925 2.571 4.555 2.656 0.683 0.096 8.245-3.733 8.245-6.005 0-0.853-0.608-1.451-1.451-1.451h-13.099c-0.704 0-1.451 0.64-1.451 1.088z"></path>
</svg>
