<!-- Generated by IcoMoon.io -->
<svg version="1.1" xmlns="http://www.w3.org/2000/svg" width="32" height="32" viewBox="0 0 32 32">
<title>tel_icon</title>
<path d="M1.376 16.075c0-1.739 0.757-4.587 1.344-5.931 6.069-14.059 27.755-9.6 27.755 5.931s-21.685 19.989-27.755 5.941c-0.587-1.355-1.344-4.203-1.344-5.941zM-0.075 14.987v2.176c0 7.467 7.445 14.912 14.912 14.912h2.176c7.467 0 14.912-7.445 14.912-14.912v-2.176c0-7.467-7.445-14.912-14.912-14.912h-2.176c-7.467 0-14.912 7.445-14.912 14.912z"></path>
<path d="M7.925 11.712c0 5.003 7.36 12.363 12.363 12.363 1.163 0 3.637-2.197 3.637-3.275 0-0.885-1.728-3.275-3.637-3.275-1.813 0-1.099 2.187-2.912 2.187-1.269 0-5.088-3.819-5.088-5.088 0-1.984 2.187-0.747 2.187-3.275 0-1.131-2.144-3.275-3.275-3.275-1.077 0-3.275 2.475-3.275 3.637z"></path>
</svg>
