<!-- Generated by IcoMoon.io -->
<svg version="1.1" xmlns="http://www.w3.org/2000/svg" width="32" height="32" viewBox="0 0 32 32">
<title>viber_icon</title>
<path d="M1.451 15.979c0-9.984 10.432-17.536 20.491-13.216 11.232 4.811 11.371 21.504-0.011 26.421-3.968 1.717-7.893 1.717-11.861 0-3.104-1.344-5.941-4.171-7.275-7.275-0.587-1.355-1.344-4.192-1.344-5.931zM0 14.88c0 5.259 0.992 8.843 4.629 12.469 10.315 10.315 27.371 2.091 27.371-10.283v-2.187c0-7.467-7.435-14.912-14.912-14.912h-2.176c-7.477 0-14.912 7.445-14.912 14.912z"></path>
<path d="M11.456 23.584c0-0.192-0.032-0.373-0.096-0.533-0.245-0.629-1.184-0.843-1.899-1.12-1.365-0.523-2.219-2.059-2.581-3.424-0.373-1.397-0.523-2.848-0.459-4.363 0.032-0.693 0.117-1.493 0.203-2.208 0.203-1.6 0.491-3.2 1.739-4.309 0.064-0.053 0.085-0.096 0.149-0.149 1.013-0.885 2.517-1.472 3.968-1.749 2.485-0.48 6.091-0.405 8.608 0.373 2.827 0.885 3.829 2.411 4.288 5.376 0.416 2.677 0.288 6.219-0.8 8.448-0.363 0.736-0.48 0.885-1.013 1.408-1.269 1.259-3.797 1.536-5.579 1.621-0.789 0.032-1.557 0.075-2.347 0.096-0.597 0.011-1.035-0.053-1.483 0.299-0.128 0.107-0.171 0.203-0.288 0.32-0.213 0.192-0.373 0.416-0.587 0.619-0.203 0.192-0.427 0.416-0.608 0.597l-1.216 1.173v-2.475zM12.693 26.293c0.149-0.139 0.277-0.277 0.437-0.427l1.333-1.344c0.619-0.672 0.16-0.405 2.133-0.501 1.6-0.064 3.253-0.085 4.811-0.491 2.4-0.619 3.765-1.899 4.533-4.309 0.704-2.197 0.8-5.077 0.501-7.413-0.064-0.512-0.181-1.141-0.299-1.643-0.395-1.664-0.96-2.709-2.069-3.637-0.864-0.736-2.123-1.28-3.488-1.6-3.403-0.811-8.277-0.821-11.349 0.853-1.707 0.928-2.901 2.304-3.328 4.288-0.288 1.365-0.512 3.136-0.512 4.587 0 2.272 0.363 4.779 1.547 6.432 0.256 0.352 0.32 0.416 0.587 0.704 0.725 0.789 1.451 1.077 2.421 1.408 0.192 0.075 0.491 0.117 0.491 0.352l0.011 4.053h0.896l1.344-1.312z"></path>
<path d="M9.451 11.093c0.043 0.448 0.245 0.864 0.395 1.248 0.683 1.717 1.685 3.243 2.912 4.576 0.053 0.075 0.128 0.128 0.203 0.203l0.309 0.32c0.021 0.021 0.032 0.032 0.053 0.053l0.704 0.64c0.992 0.928 4.256 2.997 5.355 2.901 0.811-0.064 1.557-0.757 1.931-1.387 0.651-1.12-0.181-1.536-0.811-2.016-0.309-0.235-0.629-0.459-0.96-0.693-0.299-0.224-0.736-0.491-1.237-0.437-0.491 0.064-0.736 0.405-0.949 0.715-0.213 0.32-0.64 0.544-1.163 0.32-0.416-0.171-0.757-0.352-1.088-0.576-0.331-0.213-0.907-0.672-1.141-0.96-0.427-0.533-0.843-1.077-1.067-1.803-0.181-0.597 0.096-0.896 0.384-1.163l0.107-0.107c0.256-0.203 0.587-0.384 0.64-0.811 0.085-0.651-1.365-2.571-1.963-2.997-0.896-0.619-2.773 0.555-2.613 1.973z"></path>
<path d="M16.043 7.957c-0.384 0.043-1.195 0.053-1.056 0.715 0.128 0.608 0.864 0.299 1.301 0.277 2.485-0.16 4.619 1.717 4.736 4.213 0.011 0.299 0 0.576-0.043 0.864-0.043 0.299-0.149 0.491 0.011 0.747 0.107 0.16 0.363 0.299 0.619 0.171 0.245-0.107 0.277-0.256 0.341-0.565 0.288-1.557-0.117-3.040-0.981-4.235-0.853-1.184-2.688-2.443-4.928-2.187z"></path>
<path d="M16.224 9.461c-0.395 0.043-0.757 0.096-0.747 0.544 0 0.203 0.107 0.341 0.213 0.405 0.363 0.245 1.365-0.288 2.56 0.555 0.459 0.331 0.864 0.779 1.109 1.451 0.427 1.205-0.171 1.771 0.405 2.037 0.267 0.139 0.661 0.032 0.725-0.469 0.16-1.035-0.117-2.144-0.757-2.976-0.651-0.843-1.877-1.707-3.509-1.547z"></path>
<path d="M16.352 10.976c-0.427 0.128-0.491 0.672-0.117 0.917 0.277 0.171 0.587-0.053 1.163 0.363 0.8 0.576 0.491 1.227 0.725 1.525 0.245 0.331 1.152 0.405 0.832-0.907-0.107-0.437-0.299-0.715-0.523-1.013-0.427-0.555-1.493-1.067-2.080-0.885z"></path>
</svg>
